<svg width="20" height="20" viewBox="0 0 20 20" fill="none" xmlns="http://www.w3.org/2000/svg">
<path d="M13.0651 0.916429C12.1084 0.37564 10.9944 0.470401 10.2442 1.47476C9.80929 2.0574 9.55187 2.7079 9.43743 3.42036C9.29986 4.27942 9.32931 5.1388 9.45574 5.9973C9.56445 6.73144 9.72576 7.4557 9.9461 8.16672C9.96325 8.2224 9.96829 8.28129 9.99675 8.43141C9.85636 8.349 9.79274 8.31399 9.73133 8.2755C9.13874 7.9089 8.54027 7.55205 7.91453 7.24328C7.03052 6.80641 6.12997 6.41297 5.17316 6.16025C4.49425 5.98098 3.80877 5.90486 3.10582 5.9755C1.54532 6.13093 0.635718 7.5195 0.621711 8.70541C0.613191 9.4597 0.753309 10.182 1.08903 10.8608C1.44241 11.5726 1.92021 12.1965 2.48441 12.7549C2.96967 13.236 3.48836 13.6785 4.01938 14.1078C5.50329 15.3085 7.14183 16.2432 8.9003 16.9751C10.2746 17.5464 11.6923 17.9767 13.1314 18.341C13.9238 18.5411 14.7201 18.725 15.5282 18.8547C16.1417 18.9536 16.7572 19.0243 17.3781 19.0484C17.6666 19.0591 17.9554 19.0585 18.2332 18.9755C18.7042 18.8363 19.0187 18.5426 19.1169 18.0449C19.1377 17.9421 19.1535 17.8343 19.1995 17.7421C19.3189 17.5012 19.3337 17.2503 19.3028 16.9904C19.2468 16.5246 19.1957 16.0581 19.1362 15.5929C18.9126 13.8647 18.6151 12.15 18.1889 10.4594C17.729 8.63477 17.1072 6.86307 16.3471 5.14138C15.9861 4.32459 15.5887 3.52449 15.0918 2.77617C14.5682 1.98818 13.8834 1.37982 13.0672 0.91861L13.0651 0.916429ZM13.4571 4.02667C13.8565 4.67394 14.188 5.35261 14.4965 6.0448C15.8269 9.03212 16.6019 12.1684 17.033 15.3965C17.0893 15.8164 17.14 16.2375 17.1906 16.6586C17.2049 16.7779 17.2086 16.8976 17.2197 17.0657C16.7701 17.0435 16.3823 16.9776 15.999 16.9034C13.8407 16.484 11.7232 15.9192 9.68254 15.0833C7.7429 14.2884 6.00219 13.1768 4.43992 11.7793C3.96262 11.3528 3.52132 10.8991 3.16606 10.3649C2.88335 9.94022 2.70907 9.47749 2.68384 8.96434C2.67523 8.78149 2.6856 8.60412 2.77433 8.43526C2.8949 8.20427 3.0708 8.06187 3.33414 8.02732C3.73021 7.97589 4.11908 8.02406 4.50489 8.1139C5.12726 8.25836 5.71936 8.48976 6.3002 8.74987C7.3112 9.20438 8.27202 9.74953 9.18567 10.3783C10.0847 10.9975 10.98 11.6216 11.8812 12.2373C12.1684 12.4334 12.462 12.6234 12.783 12.7638C13.1243 12.914 13.4577 12.9111 13.7826 12.7211C14.2961 12.4209 14.4484 11.7541 14.1077 11.267C14.0131 11.1313 13.8955 11.0092 13.7764 10.8927C13.1962 10.3219 12.7518 9.65921 12.4225 8.91761C11.9389 7.8299 11.6226 6.69511 11.468 5.51732C11.3896 4.91495 11.3763 4.31012 11.4805 3.7085C11.5319 3.40768 11.6254 3.12216 11.7967 2.86638C11.9256 2.67455 12.0054 2.65267 12.2054 2.79193C12.6931 3.13089 13.1404 3.50837 13.4592 4.02602L13.4571 4.02667Z" fill="#B1C9CD"/>
</svg>
