<svg width="25" height="23" viewBox="0 0 25 23" fill="none" xmlns="http://www.w3.org/2000/svg">
<path d="M15.2533 14.2676C15.5565 16.1901 15.1441 18.1031 13.9991 19.7591L13.8456 19.9725C13.4658 20.4815 12.9408 21.0486 12.3303 21.4332C11.6725 21.8476 10.884 22.0667 10.0792 21.7268L9.91808 21.6514C8.42158 20.88 7.88256 19.4644 7.39447 18.1432C6.92705 16.8779 6.5054 15.704 5.44665 14.9763L5.22678 14.8363C4.80212 14.5905 4.29782 14.3453 3.75926 14.0621C3.22794 13.7827 2.67437 13.4719 2.1847 13.1096C1.26725 12.4307 0.53078 11.5348 0.615977 10.281L0.644129 10.0247C0.868451 8.55346 1.92479 7.59523 3.36076 7.33065L3.65276 7.28731C5.60685 7.05979 7.63085 7.4828 9.43468 8.17339L9.79215 8.31466C10.2468 8.49848 10.771 8.71713 11.2863 8.97712C12.3429 9.28225 13.2176 10.0413 13.8721 10.9421C14.533 11.8516 14.9852 12.9259 15.1826 13.8832L15.2533 14.2676ZM13.8923 14.6231C13.692 13.484 13.3127 12.6144 12.765 11.8839C12.2184 11.155 11.4945 10.552 10.5817 9.95621C9.07223 9.23801 7.38649 8.78176 5.84944 8.62048L5.85031 8.61941C5.21767 8.55378 4.29767 8.4969 3.51282 8.66092C2.77351 8.81544 2.23264 9.14433 2.08373 9.77282L2.05908 9.90305L2.03796 10.1046C2.00652 10.5609 2.10726 10.9312 2.29301 11.2463C2.50885 11.6125 2.84811 11.92 3.26568 12.1991C3.68387 12.4785 4.16448 12.7189 4.65229 12.9602C5.13356 13.1982 5.62612 13.4396 6.03992 13.7123L6.35074 13.9331C7.82562 15.0648 8.18305 16.6005 8.84349 18.1594L8.84359 18.1603L9.01146 18.5257C9.42544 19.3497 9.97783 19.9601 10.5524 20.1887C10.8711 20.3155 11.1998 20.3266 11.5345 20.191C11.875 20.0528 12.2427 19.7538 12.6134 19.2227L12.6144 19.2226C13.4979 17.9517 14.0962 16.4261 13.9346 14.9241L13.8923 14.6231ZM12.1222 2.30397C12.2694 2.65684 12.2654 3.03038 12.1824 3.3758C12.1116 3.67051 11.9814 3.9532 11.8292 4.20322L11.6715 4.44164L11.6705 4.44174L11.4427 4.73267C10.8776 5.40041 10.0892 5.99458 9.22391 6.33868C8.23329 6.73257 7.11386 6.80733 6.11474 6.24988L5.85189 6.10263L5.86851 6.08322C5.6398 5.91332 5.46752 5.71519 5.35297 5.49209C5.19982 5.19377 5.15757 4.8688 5.19861 4.54304C5.27962 3.90042 5.68477 3.24321 6.23303 2.69087C6.78518 2.13461 7.50734 1.65941 8.26983 1.39063C9.01677 1.12741 9.82391 1.05532 10.549 1.32675C11.1287 1.3455 11.7249 1.57547 12.0495 2.1535L12.0496 2.15447L12.1222 2.30397ZM10.7699 3.38919C10.929 3.11299 10.9547 2.9201 10.889 2.80132L10.8877 2.79851C10.8556 2.73871 10.7575 2.66598 10.5403 2.60316C10.3506 2.5483 10.1279 2.51526 9.90432 2.48417L9.87487 2.48431C9.10527 2.45734 8.42014 2.53639 7.72614 3.01566L7.58649 3.11669L7.38004 3.29246C7.14991 3.50474 6.86547 3.81701 6.67812 4.13774C6.55273 4.35245 6.48592 4.54523 6.48562 4.6999C6.48536 4.83577 6.53462 4.95667 6.69147 5.06227L6.79009 5.12264C7.29235 5.40794 7.92268 5.39093 8.55712 5.17523C9.2317 4.94587 9.86436 4.50591 10.2562 4.06256L10.2552 4.06266C10.4036 3.89359 10.6207 3.64806 10.7699 3.38919ZM20.4297 1.60593C21.1746 2.54497 21.1385 3.89539 20.5927 4.88805L20.5928 4.88902C19.8053 6.33274 18.4029 7.19901 16.8005 7.49441L16.4144 7.5584C16.0141 7.6157 15.5784 7.64773 15.1549 7.6078C14.5896 7.55446 14.0239 7.36975 13.5959 6.92563L13.595 6.9267C12.8086 6.11709 12.8929 5.03762 13.2748 4.09309C13.6128 3.25709 14.2035 2.46721 14.7505 1.92664L14.7399 1.91892L14.9626 1.71984C15.5313 1.21185 16.2502 0.820177 16.9922 0.632442C17.7231 0.447563 18.4932 0.458333 19.1659 0.771079C19.5791 0.891969 19.9624 1.1007 20.2701 1.4233L20.4297 1.60593ZM21.241 16.1994C21.7791 16.985 21.793 18.0837 21.3944 18.9022L21.2621 19.1488C20.6087 20.2605 19.4566 20.7906 18.2112 20.892L17.9438 20.9073C17.5413 20.9208 17.016 20.8998 16.5258 20.7749C16.0409 20.6513 15.5474 20.4147 15.2695 19.9638L15.2694 19.9629C14.7566 19.1265 15.0299 18.2307 15.5207 17.5054C15.9518 16.8682 16.5803 16.3111 17.1319 15.9384L17.3628 15.7905C17.8462 15.4952 18.7106 15.1879 19.4927 15.1443C19.8839 15.1225 20.2832 15.1656 20.6083 15.3338C20.9314 15.5012 21.1629 15.7857 21.241 16.1994ZM19.5995 3.6272C19.6965 3.19455 19.6541 2.79048 19.4012 2.47458L19.4004 2.47566C19.0538 2.04556 18.5931 1.9366 18.0447 1.96269C17.7677 1.97588 17.478 2.02311 17.1799 2.07779C16.9097 2.12733 16.6269 2.18133 16.3587 2.21581C16.2265 2.30227 16.0968 2.39673 15.9662 2.50829L15.9663 2.50926C15.5573 2.86016 15.0351 3.43139 14.6816 4.05378C14.3225 4.6862 14.1732 5.30595 14.3872 5.79901L14.4488 5.91825C14.6065 6.17874 14.8627 6.32099 15.2033 6.37241C15.6037 6.43284 16.1033 6.36279 16.625 6.20292C17.1428 6.04422 17.6625 5.80369 18.0959 5.54618C18.5354 5.28504 18.8625 5.01996 19.0156 4.82145L19.0155 4.82048C19.2678 4.49501 19.5021 4.06163 19.5995 3.6272ZM20.4008 17.8437C20.454 17.4911 20.4025 17.1569 20.2181 16.8957L20.2189 16.8946C20.0893 16.7128 19.9582 16.6135 19.8321 16.5571C19.7043 16.5 19.5625 16.4792 19.3975 16.4857C19.2295 16.4924 19.0493 16.5263 18.8445 16.5682C18.6572 16.6065 18.448 16.6505 18.2344 16.6782L18.1655 16.7139L18.1646 16.715L17.8558 16.9162C17.5275 17.1417 17.1544 17.4357 16.8469 17.7651C16.4269 18.2153 16.1822 18.6742 16.2378 19.0838L16.2379 19.0848L16.2503 19.1473C16.2892 19.2881 16.3935 19.3924 16.5615 19.4751C16.7596 19.5725 17.0157 19.6215 17.2569 19.6458C17.755 19.691 18.2986 19.6792 18.79 19.5549C19.219 19.4464 19.5976 19.2553 19.8785 18.951L19.9937 18.8133C20.1921 18.5475 20.3475 18.1968 20.4008 17.8437ZM23.5981 8.35563C24.1183 9.01144 24.2604 9.90846 23.7602 10.8985L23.6559 11.093C23.1077 12.059 22.1553 12.8868 21.0761 13.3407C19.9225 13.8258 18.5922 13.8956 17.4438 13.2065L17.4447 13.2054C16.8399 12.8442 16.4529 12.3965 16.2609 11.8968C16.0693 11.398 16.0803 10.872 16.2279 10.3714C16.5021 9.44123 17.2532 8.57224 18.1404 8.02475L18.3198 7.91955C19.2536 7.40231 20.4717 7.00054 21.5892 7.07251L21.5903 7.07338L21.8723 7.10277C22.169 7.14487 22.5037 7.22654 22.7986 7.36907C23.1779 7.55249 23.5368 7.86259 23.5981 8.35563ZM22.8111 9.74887C22.8667 9.42726 22.8186 9.14893 22.6193 8.93925L22.6183 8.93838C22.3743 8.67835 22.0697 8.54828 21.7157 8.47713C21.3616 8.40603 20.9905 8.39708 20.586 8.36861C20.1833 8.45936 19.7921 8.58766 19.4176 8.76391L19.4168 8.76498L19.3682 8.78873C18.7782 9.07284 17.9835 9.6799 17.5769 10.3333C17.3749 10.6582 17.2859 10.9658 17.3298 11.236C17.372 11.496 17.5459 11.7767 17.988 12.037L17.989 12.0369L18.1265 12.1119C18.8207 12.4644 19.6446 12.4625 20.4209 12.2025C21.2498 11.9249 21.9955 11.3616 22.4283 10.6786L22.4293 10.6785C22.5973 10.4099 22.7551 10.0731 22.8111 9.74887Z" fill="#B1C9CD" stroke="#F7FAFA" stroke-width="0.5"/>
</svg>
